<?xml version="1.0" encoding="UTF-8" standalone="no"?>
<!-- Created with Inkscape (http://www.inkscape.org/) -->

<svg
   xmlns:dc="http://purl.org/dc/elements/1.1/"
   xmlns:cc="http://creativecommons.org/ns#"
   xmlns:rdf="http://www.w3.org/1999/02/22-rdf-syntax-ns#"
   xmlns:svg="http://www.w3.org/2000/svg"
   xmlns="http://www.w3.org/2000/svg"
   xmlns:sodipodi="http://sodipodi.sourceforge.net/DTD/sodipodi-0.dtd"
   xmlns:inkscape="http://www.inkscape.org/namespaces/inkscape"
   width="345"
   height="48.786869"
   id="svg3208"
   version="1.1"
   inkscape:version="0.48.5 r10040"
   sodipodi:docname="logo.svg">
  <defs
     id="defs3210" />
  <sodipodi:namedview
     id="base"
     pagecolor="#ffffff"
     bordercolor="#666666"
     borderopacity="1.0"
     inkscape:pageopacity="0.0"
     inkscape:pageshadow="2"
     inkscape:zoom="0.35"
     inkscape:cx="120.71429"
     inkscape:cy="-151.68883"
     inkscape:document-units="px"
     inkscape:current-layer="layer1"
     showgrid="false"
     fit-margin-top="0"
     fit-margin-left="0"
     fit-margin-right="0"
     fit-margin-bottom="0"
     inkscape:window-width="1920"
     inkscape:window-height="1027"
     inkscape:window-x="1912"
     inkscape:window-y="-8"
     inkscape:window-maximized="1" />
  <metadata
     id="metadata3213">
    <rdf:RDF>
      <cc:Work
         rdf:about="">
        <dc:format>image/svg+xml</dc:format>
        <dc:type
           rdf:resource="http://purl.org/dc/dcmitype/StillImage" />
        <dc:title />
      </cc:Work>
    </rdf:RDF>
  </metadata>
  <g
     inkscape:label="Layer 1"
     inkscape:groupmode="layer"
     id="layer1"
     transform="translate(-254.28571,-331.88647)">
    <g
       id="g2986"
       transform="matrix(0.99768652,0,0,0.99768652,254.28571,329.99087)">
      <g
         id="g2988">
        <path
           id="path2990"
           d="m 38.7,43.9 c 0.2,0.6 0.4,1.4 0.4,2 0,2.6 -2.4,4.8 -5.1,4.8 -2.7,0 -4.3,-1 -5.3,-3.7 L 25,36.5 c -0.2,-0.6 -0.7,-0.9 -1.3,-0.9 h -11 c -1.1,0 -1.8,-0.9 -1.8,-2 0,-1.2 0.7,-2 1.8,-2 h 10.9 c 2.6,0 4.2,1 4.9,3.2 l 3.8,10.8 c 0.3,0.7 0.7,1.1 1.4,1.1 0.6,0 1.2,-0.5 1.2,-1.2 0,-0.3 -0.1,-0.5 -0.1,-0.8 L 21.5,6.9 c -0.2,-0.6 -0.6,-1 -1.5,-1 -0.8,0 -1.3,0.4 -1.5,1 L 4,49.3 C 3.7,50.3 3.1,50.8 2,50.8 1,50.8 0,50.1 0,49 0,48.7 0.1,48.4 0.1,48.1 L 15,5 c 0.7,-2.3 2.6,-3.1 5,-3.1 2.4,0 4.3,0.9 5.1,3.1 l 13.6,38.9 z"
           inkscape:connector-curvature="0"
           style="fill:#0071bc" />
        <path
           id="path2992"
           d="m 59.5,13.3 c 4.9,0 9.6,1.7 12.9,5.3 0.3,0.4 0.6,0.9 0.6,1.5 0,1 -0.9,2.1 -2,2.1 -0.8,0 -1.4,-0.5 -1.9,-1 -2.5,-2.6 -5.8,-4 -9.8,-4 -8.6,0 -14.3,6 -14.3,14.7 0,8.5 5.1,14.9 13.7,14.9 4.3,0 8.1,-1.2 11.1,-4.4 0.5,-0.5 0.9,-0.8 1.6,-0.8 1,0 2,1 2,2 0,0.5 -0.3,1.1 -0.7,1.5 -3.2,3.6 -8.3,5.7 -14,5.7 C 47.4,50.8 41,42.3 41,31.9 40.9,20.8 48.5,13.3 59.5,13.3"
           inkscape:connector-curvature="0"
           style="fill:#0071bc" />
        <path
           id="path2994"
           d="m 93.2,17.1 c -8.7,0 -14.4,6.2 -14.4,14.9 0,8.7 5.6,15 14.5,15 8.7,0 14.4,-6.2 14.4,-14.9 0,-8.7 -5.7,-15 -14.5,-15 l 0,0 z M 74.8,32 c 0,-10.4 6.9,-18.8 18.5,-18.8 11.5,0 18.4,8.3 18.4,18.8 0,10.5 -6.9,18.8 -18.4,18.8 C 81.7,50.8 74.8,42.5 74.8,32"
           inkscape:connector-curvature="0"
           style="fill:#0071bc" />
        <path
           id="path2996"
           d="m 128.7,13.3 c 5.3,0 9.2,1.4 12.7,4.6 0.6,0.5 1,1.2 1,1.9 0,1.1 -1,2.1 -2.1,2.1 -0.9,0 -1.4,-0.5 -1.8,-1 -2.4,-2.6 -6,-3.7 -10.1,-3.7 -4.3,0 -9.5,2.2 -9.5,6.8 0,10.8 25,0.6 25,16 0,7.3 -7.7,10.8 -14.5,10.8 -6.2,0 -10.6,-1.1 -14.2,-5.2 -0.5,-0.5 -0.7,-1.2 -0.7,-1.8 0,-1 0.9,-2 2,-2 0.9,0 1.5,0.5 2,1.2 2,2.6 5.3,3.8 10.8,3.8 5.3,0 10.7,-2.2 10.7,-6.8 0,-11.5 -24.9,-0.5 -24.9,-16.4 0,-5.6 5.7,-10.3 13.6,-10.3"
           inkscape:connector-curvature="0"
           style="fill:#0071bc" />
      </g>
      <g
         id="g2998">
        <path
           id="path3000"
           d="m 173.3,27.1 c 0.1,0.2 0.2,0.3 0.2,0.5 0,0.2 -0.1,0.4 -0.2,0.5 -0.1,0.1 -0.3,0.2 -0.6,0.2 -0.2,0 -0.4,-0.1 -0.6,-0.3 l -4.5,-5.7 -2,2 v 3.3 c 0,0.2 -0.1,0.4 -0.2,0.6 -0.2,0.2 -0.3,0.2 -0.6,0.2 -0.3,0 -0.4,-0.1 -0.6,-0.2 C 164,28 164,27.9 164,27.6 V 16.8 c 0,-0.2 0.1,-0.4 0.2,-0.6 0.2,-0.2 0.3,-0.2 0.6,-0.2 0.3,0 0.4,0.1 0.6,0.2 0.2,0.1 0.2,0.3 0.2,0.6 v 5.6 l 6,-6.1 c 0.2,-0.2 0.3,-0.3 0.6,-0.3 0.2,0 0.4,0.1 0.5,0.2 0.1,0.1 0.2,0.3 0.2,0.5 0,0.2 -0.1,0.4 -0.2,0.5 l -4,4 4.6,5.9 z"
           inkscape:connector-curvature="0"
           style="fill:#0f364d" />
        <path
           id="path3002"
           d="m 180.5,26.8 4.1,-10.2 c 0.2,-0.4 0.4,-0.5 0.7,-0.5 0.3,0 0.5,0.1 0.7,0.2 0.2,0.1 0.2,0.3 0.2,0.5 0,0.2 0,0.3 -0.1,0.4 l -4.3,10.5 c -0.2,0.5 -0.6,0.8 -1.1,0.8 h -0.4 c -0.5,0 -0.8,-0.3 -1.1,-0.8 l -4.3,-10.5 c 0,-0.1 -0.1,-0.2 -0.1,-0.4 0,-0.2 0.1,-0.3 0.2,-0.5 0.1,-0.2 0.3,-0.2 0.5,-0.2 0.4,0 0.7,0.2 0.8,0.5 l 4.2,10.2 z"
           inkscape:connector-curvature="0"
           style="fill:#0f364d" />
        <path
           id="path3004"
           d="m 197.9,27.3 c 0.1,0.1 0.1,0.3 0.1,0.4 0,0.1 -0.1,0.3 -0.2,0.5 -0.1,0.2 -0.4,0.2 -0.7,0.2 -0.3,0 -0.5,-0.2 -0.7,-0.5 l -1.1,-2.7 h -5.9 l -1.1,2.7 c -0.1,0.3 -0.4,0.5 -0.7,0.5 -0.3,0 -0.5,-0.1 -0.7,-0.2 -0.1,-0.2 -0.2,-0.3 -0.2,-0.5 0,-0.2 0,-0.3 0.1,-0.4 l 4.5,-10.5 c 0.2,-0.5 0.5,-0.7 1,-0.7 h 0.2 c 0.5,0 0.8,0.2 1,0.7 l 4.4,10.5 z m -3.2,-3.6 -2.4,-5.7 -2.4,5.7 h 4.8 z"
           inkscape:connector-curvature="0"
           style="fill:#0f364d" />
        <path
           id="path3006"
           d="m 208.4,26.9 c 0.2,0.2 0.2,0.3 0.2,0.6 0,0.2 -0.1,0.4 -0.2,0.6 -0.1,0.2 -0.3,0.2 -0.6,0.2 h -6.2 c -0.3,0 -0.6,-0.1 -0.8,-0.3 -0.2,-0.2 -0.3,-0.5 -0.3,-0.8 V 16.8 c 0,-0.2 0.1,-0.4 0.2,-0.6 0.1,-0.2 0.3,-0.2 0.6,-0.2 0.2,0 0.4,0.1 0.6,0.2 0.2,0.1 0.2,0.3 0.2,0.6 v 9.9 h 5.7 c 0.3,0 0.4,0.1 0.6,0.2 z"
           inkscape:connector-curvature="0"
           style="fill:#0f364d" />
        <path
           id="path3008"
           d="m 211.8,16 c 0.2,0 0.4,0.1 0.6,0.2 0.2,0.1 0.2,0.3 0.2,0.6 v 10.8 c 0,0.2 -0.1,0.4 -0.2,0.6 -0.2,0.2 -0.3,0.2 -0.6,0.2 -0.2,0 -0.4,-0.1 -0.6,-0.2 C 211,28 211,27.9 211,27.6 V 16.8 c 0,-0.2 0.1,-0.4 0.2,-0.6 0.1,-0.2 0.4,-0.2 0.6,-0.2 z"
           inkscape:connector-curvature="0"
           style="fill:#0f364d" />
        <path
           id="path3010"
           d="m 225,16.3 c 0.1,0.1 0.2,0.3 0.2,0.5 0,0.2 -0.1,0.4 -0.2,0.5 -0.1,0.1 -0.3,0.2 -0.5,0.2 H 221 v 10 c 0,0.2 -0.1,0.4 -0.2,0.6 -0.2,0.2 -0.3,0.2 -0.6,0.2 -0.3,0 -0.4,-0.1 -0.6,-0.2 -0.2,-0.2 -0.2,-0.3 -0.2,-0.6 v -10 h -3.6 c -0.2,0 -0.4,-0.1 -0.5,-0.2 -0.1,-0.1 -0.2,-0.3 -0.2,-0.5 0,-0.2 0.1,-0.4 0.2,-0.5 0.1,-0.1 0.3,-0.2 0.5,-0.2 h 8.7 c 0.1,0 0.3,0.1 0.5,0.2 z"
           inkscape:connector-curvature="0"
           style="fill:#0f364d" />
        <path
           id="path3012"
           d="m 235.9,27 c 0.1,0.1 0.2,0.3 0.2,0.5 0,0.2 -0.1,0.4 -0.2,0.5 -0.1,0.1 -0.3,0.2 -0.5,0.2 h -7 c -0.2,0 -0.4,-0.1 -0.6,-0.2 -0.2,-0.2 -0.2,-0.3 -0.2,-0.6 V 16.9 c 0,-0.2 0.1,-0.4 0.2,-0.6 0.2,-0.2 0.3,-0.2 0.6,-0.2 h 7 c 0.2,0 0.4,0.1 0.5,0.2 0.1,0.1 0.2,0.3 0.2,0.5 0,0.2 -0.1,0.4 -0.2,0.5 -0.1,0.1 -0.3,0.2 -0.5,0.2 h -6.2 v 3.9 h 5.6 c 0.2,0 0.4,0.1 0.5,0.2 0.1,0.1 0.2,0.3 0.2,0.5 0,0.2 -0.1,0.4 -0.2,0.5 -0.1,0.1 -0.3,0.2 -0.5,0.2 h -5.6 v 3.9 h 6.2 c 0.2,0.1 0.3,0.2 0.5,0.3 z"
           inkscape:connector-curvature="0"
           style="fill:#0f364d" />
        <path
           id="path3014"
           d="m 247.7,16.3 c 0.1,0.1 0.2,0.3 0.2,0.5 0,0.2 -0.1,0.4 -0.2,0.5 -0.1,0.1 -0.3,0.2 -0.5,0.2 h -3.5 v 10 c 0,0.2 -0.1,0.4 -0.2,0.6 -0.2,0.2 -0.3,0.2 -0.6,0.2 -0.2,0 -0.4,-0.1 -0.6,-0.2 -0.2,-0.2 -0.2,-0.3 -0.2,-0.6 v -10 h -3.6 c -0.2,0 -0.4,-0.1 -0.5,-0.2 -0.1,-0.1 -0.2,-0.3 -0.2,-0.5 0,-0.2 0.1,-0.4 0.2,-0.5 0.1,-0.1 0.3,-0.2 0.5,-0.2 h 8.7 c 0.1,0 0.3,0.1 0.5,0.2 z"
           inkscape:connector-curvature="0"
           style="fill:#0f364d" />
        <path
           id="path3016"
           d="m 260.8,27 c 1.1,0 2.1,-0.3 3.1,-0.8 V 23 H 261 c -0.2,0 -0.4,-0.1 -0.5,-0.2 -0.1,-0.1 -0.2,-0.3 -0.2,-0.5 0,-0.2 0.1,-0.4 0.2,-0.5 0.1,-0.1 0.3,-0.2 0.5,-0.2 h 3.4 c 0.2,0 0.4,0.1 0.6,0.2 0.2,0.2 0.2,0.4 0.2,0.6 v 4 c 0,0.2 -0.1,0.5 -0.2,0.7 -0.1,0.2 -0.3,0.3 -0.5,0.4 -1.3,0.7 -2.6,1 -4,1 -1.8,0 -3.3,-0.6 -4.4,-1.7 -1.1,-1.2 -1.7,-2.7 -1.7,-4.5 0,-1.9 0.6,-3.4 1.8,-4.6 1.1,-1.1 2.6,-1.7 4.3,-1.7 1,0 1.8,0.1 2.5,0.4 0.7,0.2 1.3,0.5 1.8,0.9 0.2,0.1 0.3,0.3 0.3,0.5 0,0.2 -0.1,0.4 -0.2,0.6 -0.1,0.2 -0.3,0.2 -0.5,0.2 -0.2,0 -0.3,0 -0.4,-0.1 -1.1,-0.7 -2.3,-1 -3.4,-1 -1.4,0 -2.5,0.4 -3.3,1.2 -0.9,0.9 -1.3,2 -1.3,3.5 0,1.4 0.4,2.5 1.3,3.4 0.9,0.9 2.1,1.4 3.5,1.4 z"
           inkscape:connector-curvature="0"
           style="fill:#0f364d" />
        <path
           id="path3018"
           d="m 272.7,16 c 0.2,0 0.4,0.1 0.6,0.2 0.2,0.1 0.2,0.3 0.2,0.6 v 7.5 c 0,1.5 -0.4,2.6 -1.1,3.4 -0.6,0.6 -1.4,0.8 -2.5,0.8 -0.8,0 -1.6,-0.2 -2.3,-0.6 -0.3,-0.1 -0.4,-0.3 -0.4,-0.6 0,-0.2 0.1,-0.4 0.2,-0.6 0.1,-0.2 0.3,-0.2 0.4,-0.2 0.1,0 0.3,0 0.5,0.1 0.4,0.2 0.9,0.3 1.3,0.3 0.4,0 0.7,0 1,-0.1 0.3,-0.1 0.5,-0.2 0.7,-0.4 0.4,-0.4 0.7,-1.1 0.7,-2.1 v -7.6 c 0,-0.2 0.1,-0.4 0.2,-0.6 0.1,-0.2 0.3,-0.1 0.5,-0.1 z"
           inkscape:connector-curvature="0"
           style="fill:#0f364d" />
        <path
           id="path3020"
           d="m 285.6,27 c 0.1,0.1 0.2,0.3 0.2,0.5 0,0.2 -0.1,0.4 -0.2,0.5 -0.1,0.1 -0.3,0.2 -0.5,0.2 h -7 c -0.2,0 -0.4,-0.1 -0.6,-0.2 -0.2,-0.1 -0.2,-0.3 -0.2,-0.6 V 16.9 c 0,-0.2 0.1,-0.4 0.2,-0.6 0.1,-0.2 0.3,-0.2 0.6,-0.2 h 7 c 0.2,0 0.4,0.1 0.5,0.2 0.1,0.1 0.2,0.3 0.2,0.5 0,0.2 -0.1,0.4 -0.2,0.5 -0.1,0.1 -0.3,0.2 -0.5,0.2 h -6.2 v 3.9 h 5.6 c 0.2,0 0.4,0.1 0.5,0.2 0.1,0.1 0.2,0.3 0.2,0.5 0,0.2 -0.1,0.4 -0.2,0.5 -0.1,0.1 -0.3,0.2 -0.5,0.2 h -5.6 v 3.9 h 6.2 c 0.1,0.1 0.3,0.2 0.5,0.3 z"
           inkscape:connector-curvature="0"
           style="fill:#0f364d" />
        <path
           id="path3022"
           d="m 298.7,16 c 0.2,0 0.4,0.1 0.6,0.2 0.2,0.1 0.2,0.3 0.2,0.6 v 10.4 c 0,0.3 -0.1,0.6 -0.3,0.8 -0.2,0.2 -0.5,0.3 -0.8,0.3 h -0.2 c -0.4,0 -0.7,-0.2 -0.9,-0.5 L 290.5,18 v 9.5 c 0,0.2 -0.1,0.4 -0.2,0.6 -0.2,0.2 -0.3,0.2 -0.6,0.2 -0.2,0 -0.4,-0.1 -0.6,-0.2 -0.2,-0.2 -0.2,-0.3 -0.2,-0.6 V 17.2 c 0,-0.3 0.1,-0.6 0.3,-0.8 0.2,-0.2 0.5,-0.3 0.8,-0.3 h 0.2 c 0.4,0 0.7,0.2 1,0.5 l 6.7,9.7 v -9.4 c 0,-0.2 0.1,-0.4 0.2,-0.6 0.1,-0.2 0.3,-0.3 0.6,-0.3 z"
           inkscape:connector-curvature="0"
           style="fill:#0f364d" />
        <path
           id="path3024"
           d="m 313.1,16 c 0.2,0 0.4,0.1 0.6,0.2 0.2,0.1 0.2,0.3 0.2,0.6 v 10.4 c 0,0.3 -0.1,0.6 -0.3,0.8 -0.2,0.2 -0.5,0.3 -0.8,0.3 h -0.2 c -0.4,0 -0.7,-0.2 -0.9,-0.5 L 304.9,18 v 9.5 c 0,0.2 -0.1,0.4 -0.2,0.6 -0.2,0.2 -0.3,0.2 -0.6,0.2 -0.3,0 -0.4,-0.1 -0.6,-0.2 -0.2,-0.2 -0.2,-0.3 -0.2,-0.6 V 17.2 c 0,-0.3 0.1,-0.6 0.3,-0.8 0.2,-0.2 0.5,-0.3 0.8,-0.3 h 0.2 c 0.4,0 0.7,0.2 1,0.5 l 6.7,9.7 v -9.4 c 0,-0.2 0.1,-0.4 0.2,-0.6 0.2,-0.2 0.4,-0.3 0.6,-0.3 z"
           inkscape:connector-curvature="0"
           style="fill:#0f364d" />
        <path
           id="path3026"
           d="m 323.2,15.9 c 1.8,0 3.3,0.6 4.4,1.8 1.1,1.2 1.6,2.7 1.7,4.5 0,1.9 -0.6,3.4 -1.7,4.5 -1.1,1.2 -2.6,1.8 -4.4,1.8 -1.9,0 -3.3,-0.6 -4.4,-1.8 -1.1,-1.2 -1.7,-2.7 -1.7,-4.5 0,-1.8 0.6,-3.3 1.7,-4.5 1,-1.2 2.5,-1.8 4.4,-1.8 z m 0,11.1 c 1.4,0 2.5,-0.5 3.4,-1.4 0.8,-0.9 1.2,-2 1.2,-3.4 0,-1.4 -0.4,-2.5 -1.2,-3.4 -0.8,-0.9 -1.9,-1.4 -3.4,-1.4 -1.5,0 -2.5,0.5 -3.4,1.4 -0.8,0.9 -1.2,2 -1.2,3.4 0,1.4 0.4,2.5 1.2,3.4 0.8,0.9 1.9,1.4 3.4,1.4 z"
           inkscape:connector-curvature="0"
           style="fill:#0f364d" />
        <path
           id="path3028"
           d="m 345.5,16.4 c 0.2,0.2 0.3,0.5 0.3,0.8 v 10.4 c 0,0.2 -0.1,0.4 -0.2,0.6 -0.2,0.2 -0.3,0.2 -0.6,0.2 -0.2,0 -0.4,-0.1 -0.6,-0.2 -0.2,-0.2 -0.2,-0.3 -0.2,-0.6 v -9.9 l -4,10 c -0.1,0.2 -0.2,0.4 -0.4,0.5 -0.2,0.1 -0.4,0.2 -0.7,0.2 -0.3,0 -0.5,-0.1 -0.7,-0.2 -0.2,-0.1 -0.3,-0.3 -0.4,-0.5 l -4,-10 v 9.9 c 0,0.2 -0.1,0.4 -0.2,0.6 -0.2,0.2 -0.3,0.2 -0.6,0.2 -0.2,0 -0.4,-0.1 -0.6,-0.2 -0.2,-0.2 -0.2,-0.3 -0.2,-0.6 V 17.2 c 0,-0.3 0.1,-0.6 0.3,-0.8 0.2,-0.2 0.5,-0.3 0.8,-0.3 h 0.6 c 0.2,0 0.4,0.1 0.6,0.2 0.2,0.1 0.3,0.3 0.4,0.5 l 4,9.9 4,-9.9 c 0.1,-0.2 0.2,-0.4 0.4,-0.5 0.2,-0.1 0.4,-0.2 0.6,-0.2 h 0.6 c 0.3,-0.1 0.6,0 0.8,0.3 z"
           inkscape:connector-curvature="0"
           style="fill:#0f364d" />
        <path
           id="path3030"
           d="m 172.3,48 c 0.1,0.1 0.2,0.3 0.2,0.5 0,0.2 -0.1,0.4 -0.2,0.5 -0.1,0.1 -0.3,0.2 -0.5,0.2 h -7 c -0.2,0 -0.4,-0.1 -0.6,-0.2 C 164,48.8 164,48.7 164,48.4 V 37.9 c 0,-0.2 0.1,-0.4 0.2,-0.6 0.2,-0.2 0.3,-0.2 0.6,-0.2 h 7 c 0.2,0 0.4,0.1 0.5,0.2 0.1,0.1 0.2,0.3 0.2,0.5 0,0.2 -0.1,0.4 -0.2,0.5 -0.1,0.1 -0.3,0.2 -0.5,0.2 h -6.2 v 3.9 h 5.6 c 0.2,0 0.4,0.1 0.5,0.2 0.1,0.1 0.2,0.3 0.2,0.5 0,0.2 -0.1,0.4 -0.2,0.5 -0.1,0.1 -0.3,0.2 -0.5,0.2 h -5.6 v 3.9 h 6.2 c 0.2,0.1 0.4,0.2 0.5,0.3 z"
           inkscape:connector-curvature="0"
           style="fill:#0f364d" />
        <path
           id="path3032"
           d="m 185.4,37 c 0.2,0 0.4,0.1 0.6,0.2 0.2,0.1 0.2,0.3 0.2,0.6 v 10.4 c 0,0.3 -0.1,0.6 -0.3,0.8 -0.2,0.2 -0.5,0.3 -0.8,0.3 h -0.2 c -0.4,0 -0.7,-0.2 -0.9,-0.5 L 177.2,39 v 9.5 c 0,0.2 -0.1,0.4 -0.2,0.6 -0.2,0.2 -0.3,0.2 -0.6,0.2 -0.2,0 -0.4,-0.1 -0.6,-0.2 -0.2,-0.2 -0.2,-0.3 -0.2,-0.6 V 38.1 c 0,-0.3 0.1,-0.6 0.3,-0.8 0.2,-0.2 0.5,-0.3 0.8,-0.3 h 0.2 c 0.4,0 0.7,0.2 1,0.5 l 6.7,9.7 v -9.4 c 0,-0.2 0.1,-0.4 0.2,-0.6 0.1,-0.2 0.4,-0.2 0.6,-0.2 z"
           inkscape:connector-curvature="0"
           style="fill:#0f364d" />
        <path
           id="path3034"
           d="m 195.6,47.9 c 1.1,0 2.1,-0.3 3.1,-0.8 V 44 h -2.9 c -0.2,0 -0.4,-0.1 -0.5,-0.2 -0.1,-0.1 -0.2,-0.3 -0.2,-0.5 0,-0.2 0.1,-0.4 0.2,-0.5 0.1,-0.1 0.3,-0.2 0.5,-0.2 h 3.4 c 0.2,0 0.4,0.1 0.6,0.2 0.2,0.2 0.2,0.4 0.2,0.6 v 4 c 0,0.2 -0.1,0.5 -0.2,0.7 -0.1,0.2 -0.3,0.3 -0.5,0.4 -1.3,0.7 -2.6,1 -4,1 -1.8,0 -3.3,-0.6 -4.4,-1.7 -1.1,-1.2 -1.7,-2.7 -1.7,-4.5 0,-1.9 0.6,-3.4 1.8,-4.6 1.1,-1.1 2.6,-1.7 4.3,-1.7 1,0 1.8,0.1 2.5,0.4 0.7,0.2 1.3,0.5 1.8,0.9 0.2,0.1 0.3,0.3 0.3,0.5 0,0.2 -0.1,0.4 -0.2,0.6 -0.1,0.2 -0.3,0.2 -0.5,0.2 -0.2,0 -0.3,0 -0.4,-0.1 -1.1,-0.7 -2.3,-1 -3.4,-1 -1.4,0 -2.5,0.4 -3.3,1.2 -0.9,0.9 -1.3,2 -1.3,3.5 0,1.4 0.4,2.5 1.3,3.4 0.9,0.9 2.1,1.3 3.5,1.3 z"
           inkscape:connector-curvature="0"
           style="fill:#0f364d" />
        <path
           id="path3036"
           d="m 213.4,48.2 c 0.1,0.1 0.1,0.3 0.1,0.4 0,0.1 -0.1,0.3 -0.2,0.5 -0.1,0.2 -0.4,0.2 -0.7,0.2 -0.3,0 -0.5,-0.2 -0.7,-0.5 l -1.1,-2.7 h -5.9 l -1.1,2.7 c -0.1,0.3 -0.4,0.5 -0.7,0.5 -0.3,0 -0.5,-0.1 -0.7,-0.2 -0.1,-0.2 -0.2,-0.3 -0.2,-0.5 0,-0.2 0,-0.3 0.1,-0.4 l 4.5,-10.5 c 0.2,-0.5 0.5,-0.7 1,-0.7 h 0.2 c 0.5,0 0.8,0.2 1,0.7 l 4.4,10.5 z m -3.2,-3.5 -2.4,-5.7 -2.4,5.7 h 4.8 z"
           inkscape:connector-curvature="0"
           style="fill:#0f364d" />
        <path
           id="path3038"
           d="m 219.8,47.9 c 2,0 3.1,-0.7 3.1,-2 0,-0.6 -0.4,-1 -1.2,-1.3 -0.3,-0.1 -0.7,-0.3 -1.2,-0.4 -0.4,-0.1 -0.9,-0.2 -1.4,-0.4 -0.5,-0.2 -0.9,-0.3 -1.4,-0.4 -0.4,-0.2 -0.8,-0.4 -1.2,-0.6 -0.8,-0.6 -1.2,-1.4 -1.2,-2.3 0,-1 0.4,-1.9 1.2,-2.5 0.8,-0.7 2,-1.1 3.4,-1.1 1.3,0 2.4,0.2 3.5,0.6 0.3,0.1 0.5,0.3 0.5,0.7 0,0.2 -0.1,0.3 -0.2,0.5 -0.1,0.2 -0.3,0.2 -0.4,0.2 -0.1,0 -0.3,0 -0.6,-0.1 -0.8,-0.3 -1.6,-0.4 -2.6,-0.4 -0.9,0 -1.6,0.2 -2.2,0.5 -0.6,0.3 -0.9,0.8 -0.9,1.5 0,0.7 0.4,1.2 1.2,1.5 0.3,0.2 0.7,0.3 1.2,0.4 0.4,0.1 0.9,0.2 1.4,0.3 0.5,0.1 0.9,0.3 1.4,0.4 0.5,0.1 0.8,0.4 1.2,0.6 0.8,0.6 1.2,1.4 1.2,2.4 0,1 -0.4,1.8 -1.2,2.4 -0.8,0.6 -1.9,1 -3.3,1 -1.5,0 -2.9,-0.3 -4.2,-0.8 -0.1,-0.1 -0.2,-0.2 -0.3,-0.3 -0.1,-0.1 -0.1,-0.3 -0.1,-0.5 0,-0.2 0.1,-0.3 0.2,-0.5 0.1,-0.2 0.3,-0.2 0.4,-0.2 0.1,0 0.4,0.1 0.6,0.2 0.2,0.1 0.7,0.2 1.2,0.4 0.5,0.2 1.1,0.2 1.9,0.2 z"
           inkscape:connector-curvature="0"
           style="fill:#0f364d" />
        <path
           id="path3040"
           d="m 231.3,37 c 0.2,0 0.4,0.1 0.6,0.2 0.2,0.1 0.2,0.3 0.2,0.6 v 7.5 c 0,1.5 -0.4,2.6 -1.1,3.4 -0.6,0.6 -1.4,0.8 -2.5,0.8 -0.8,0 -1.6,-0.2 -2.3,-0.6 -0.3,-0.1 -0.4,-0.3 -0.4,-0.6 0,-0.2 0.1,-0.4 0.2,-0.6 0.1,-0.2 0.3,-0.2 0.4,-0.2 0.1,0 0.3,0 0.5,0.1 0.4,0.2 0.9,0.3 1.3,0.3 0.4,0 0.7,0 1,-0.1 0.3,-0.1 0.5,-0.2 0.7,-0.4 0.4,-0.4 0.7,-1.1 0.7,-2.1 v -7.6 c 0,-0.2 0.1,-0.4 0.2,-0.6 0.1,-0.2 0.3,-0.1 0.5,-0.1 z"
           inkscape:connector-curvature="0"
           style="fill:#0f364d" />
        <path
           id="path3042"
           d="m 244.2,48 c 0.1,0.1 0.2,0.3 0.2,0.5 0,0.2 -0.1,0.4 -0.2,0.5 -0.1,0.1 -0.3,0.2 -0.5,0.2 h -7 c -0.2,0 -0.4,-0.1 -0.6,-0.2 -0.2,-0.2 -0.2,-0.3 -0.2,-0.6 V 37.9 c 0,-0.2 0.1,-0.4 0.2,-0.6 0.2,-0.2 0.3,-0.2 0.6,-0.2 h 7 c 0.2,0 0.4,0.1 0.5,0.2 0.1,0.1 0.2,0.3 0.2,0.5 0,0.2 -0.1,0.4 -0.2,0.5 -0.1,0.1 -0.3,0.2 -0.5,0.2 h -6.2 v 3.9 h 5.6 c 0.2,0 0.4,0.1 0.5,0.2 0.1,0.1 0.2,0.3 0.2,0.5 0,0.2 -0.1,0.4 -0.2,0.5 -0.1,0.1 -0.3,0.2 -0.5,0.2 h -5.6 v 3.9 h 6.2 c 0.2,0.1 0.3,0.2 0.5,0.3 z"
           inkscape:connector-curvature="0"
           style="fill:#0f364d" />
        <path
           id="path3044"
           d="m 260.6,37.3 c 0.2,0.2 0.3,0.5 0.3,0.8 v 10.4 c 0,0.2 -0.1,0.4 -0.2,0.6 -0.2,0.2 -0.3,0.2 -0.6,0.2 -0.2,0 -0.4,-0.1 -0.6,-0.2 -0.2,-0.2 -0.2,-0.3 -0.2,-0.6 v -9.9 l -4,10 c -0.1,0.2 -0.2,0.4 -0.4,0.5 -0.2,0.1 -0.4,0.2 -0.7,0.2 -0.3,0 -0.5,-0.1 -0.7,-0.2 -0.2,-0.1 -0.3,-0.3 -0.4,-0.5 l -4,-10 v 9.9 c 0,0.2 -0.1,0.4 -0.2,0.6 -0.2,0.2 -0.3,0.2 -0.6,0.2 -0.2,0 -0.4,-0.1 -0.6,-0.2 -0.2,-0.2 -0.2,-0.3 -0.2,-0.6 V 38.1 c 0,-0.3 0.1,-0.6 0.3,-0.8 0.2,-0.2 0.5,-0.3 0.8,-0.3 h 0.6 c 0.2,0 0.4,0.1 0.6,0.2 0.2,0.1 0.3,0.3 0.4,0.5 l 4,9.9 4,-9.9 c 0.1,-0.2 0.2,-0.4 0.4,-0.5 0.2,-0.1 0.4,-0.2 0.6,-0.2 h 0.6 c 0.3,0 0.6,0.1 0.8,0.3 z"
           inkscape:connector-curvature="0"
           style="fill:#0f364d" />
        <path
           id="path3046"
           d="m 273.1,48 c 0.1,0.1 0.2,0.3 0.2,0.5 0,0.2 -0.1,0.4 -0.2,0.5 -0.1,0.1 -0.3,0.2 -0.5,0.2 h -7 c -0.2,0 -0.4,-0.1 -0.6,-0.2 -0.2,-0.1 -0.2,-0.3 -0.2,-0.6 V 37.9 c 0,-0.2 0.1,-0.4 0.2,-0.6 0.1,-0.2 0.3,-0.2 0.6,-0.2 h 7 c 0.2,0 0.4,0.1 0.5,0.2 0.1,0.1 0.2,0.3 0.2,0.5 0,0.2 -0.1,0.4 -0.2,0.5 -0.1,0.1 -0.3,0.2 -0.5,0.2 h -6.2 v 3.9 h 5.6 c 0.2,0 0.4,0.1 0.5,0.2 0.1,0.1 0.2,0.3 0.2,0.5 0,0.2 -0.1,0.4 -0.2,0.5 -0.1,0.1 -0.3,0.2 -0.5,0.2 h -5.6 v 3.9 h 6.2 c 0.2,0.1 0.3,0.2 0.5,0.3 z"
           inkscape:connector-curvature="0"
           style="fill:#0f364d" />
        <path
           id="path3048"
           d="m 286.2,37 c 0.2,0 0.4,0.1 0.6,0.2 0.2,0.1 0.2,0.3 0.2,0.6 v 10.4 c 0,0.3 -0.1,0.6 -0.3,0.8 -0.2,0.2 -0.5,0.3 -0.8,0.3 h -0.2 c -0.4,0 -0.7,-0.2 -0.9,-0.5 L 278,39 v 9.5 c 0,0.2 -0.1,0.4 -0.2,0.6 -0.2,0.2 -0.3,0.2 -0.6,0.2 -0.3,0 -0.4,-0.1 -0.6,-0.2 -0.2,-0.2 -0.2,-0.3 -0.2,-0.6 V 38.1 c 0,-0.3 0.1,-0.6 0.3,-0.8 0.2,-0.2 0.5,-0.3 0.8,-0.3 h 0.2 c 0.4,0 0.7,0.2 1,0.5 l 6.7,9.7 v -9.4 c 0,-0.2 0.1,-0.4 0.2,-0.6 0.2,-0.1 0.4,-0.2 0.6,-0.2 z"
           inkscape:connector-curvature="0"
           style="fill:#0f364d" />
        <path
           id="path3050"
           d="m 299.3,37.3 c 0.1,0.1 0.2,0.3 0.2,0.5 0,0.2 -0.1,0.4 -0.2,0.5 -0.1,0.1 -0.3,0.2 -0.5,0.2 h -3.5 v 10 c 0,0.2 -0.1,0.4 -0.2,0.6 -0.2,0.2 -0.3,0.2 -0.6,0.2 -0.3,0 -0.4,-0.1 -0.6,-0.2 -0.2,-0.2 -0.2,-0.3 -0.2,-0.6 v -10 h -3.6 c -0.2,0 -0.4,-0.1 -0.5,-0.2 -0.1,-0.1 -0.2,-0.3 -0.2,-0.5 0,-0.2 0.1,-0.4 0.2,-0.5 0.1,-0.1 0.3,-0.2 0.5,-0.2 h 8.7 c 0.2,0 0.4,0 0.5,0.2 z"
           inkscape:connector-curvature="0"
           style="fill:#0f364d" />
      </g>
    </g>
  </g>
</svg>
